<?xml version="1.0" standalone="no"?><!DOCTYPE svg PUBLIC "-//W3C//DTD SVG 1.1//EN" "http://www.w3.org/Graphics/SVG/1.1/DTD/svg11.dtd"><svg t="1656553331335" class="icon" viewBox="0 0 1024 1024" version="1.1" xmlns="http://www.w3.org/2000/svg" p-id="2482" xmlns:xlink="http://www.w3.org/1999/xlink" width="200" height="200"><defs><style type="text/css">@font-face { font-family: "feedback-iconfont"; src: url("//at.alicdn.com/t/font_1031158_u69w8yhxdu.woff2?t=1630033759944") format("woff2"), url("//at.alicdn.com/t/font_1031158_u69w8yhxdu.woff?t=1630033759944") format("woff"), url("//at.alicdn.com/t/font_1031158_u69w8yhxdu.ttf?t=1630033759944") format("truetype"); }
</style></defs><path d="M421.4 753.5c-1 30.5-24 53.4-54.5 54.5-30.5 1-53.5-25.5-54.5-54.5-1-30.5 25.5-53.5 54.5-54.5 30.5-1.1 53.5 25.5 54.5 54.5 0.8 23.6 37.4 23.6 36.6 0-1.7-50.8-40.3-89.4-91.1-91.1-50.8-1.7-89.5 42.9-91.1 91.1-1.7 50.8 42.9 89.5 91.1 91.1 50.8 1.7 89.5-42.9 91.1-91.1 0.8-23.7-35.8-23.6-36.6 0z m297.2 0c-1 30.5-24 53.4-54.5 54.5-30.5 1-53.5-25.5-54.5-54.5-1-30.5 25.5-53.5 54.5-54.5 30.5-1.1 53.6 25.5 54.5 54.5 0.8 23.6 37.4 23.6 36.6 0-1.7-50.8-40.3-89.4-91.1-91.1-50.8-1.7-89.5 42.9-91.1 91.1-1.7 50.8 42.9 89.5 91.1 91.1 50.8 1.7 89.5-42.9 91.1-91.1 0.9-23.7-35.8-23.6-36.6 0z m0 0" p-id="2483"></path><path d="M677 353.2c59.9 52.1 119.8 104.1 179.7 156.2l-5.4-12.9v226c0 10.9-7.8 11-16.7 11H737c-23.6 0-23.6 36.6 0 36.6h64.4c21.5 0 49.9 4.6 68.4-8.5 18.5-13.1 18.2-33.2 18.2-53.1V497.1c0-13-14.3-21.4-23-29l-58.5-50.8-103.5-90c-17.8-15.4-43.8 10.4-26 25.9z m0 0" p-id="2484"></path><path d="M294.1 733.3h-66.8c-12.5 0-18.9-1.3-18.9-14.4V254.5c0-10.2 11.3-8.2 18.1-8.2H664c11.4 0 7.7 20.4 7.7 27.3v66.7c0 23.6 36.6 23.6 36.6 0v-57.6c0-29.9 0.3-69-39.4-72.6-27.4-2.5-55.7-0.4-83.1-0.4H258.2c-36 0-82.1-5.4-86.5 44-2.3 25.5 0 52.3 0 78v379c0 7.8-1 17.3 1.1 24.9 8.3 30.1 33.4 34.5 60.1 34.5h61.2c23.6-0.1 23.6-36.8 0-36.8z m295.5 0h-126c-23.6 0-23.6 36.6 0 36.6h126c23.6 0.1 23.6-36.6 0-36.6z m82.1-268.1v67.4c0 10 8.3 18.3 18.3 18.3h99.7c23.6 0 23.6-36.6 0-36.6H690l18.3 18.3v-67.4c0-23.7-36.6-23.7-36.6 0z m0 0" p-id="2485"></path></svg>