<?xml version="1.0" standalone="no"?><!DOCTYPE svg PUBLIC "-//W3C//DTD SVG 1.1//EN" "http://www.w3.org/Graphics/SVG/1.1/DTD/svg11.dtd"><svg t="1656417998952" class="icon" viewBox="0 0 1024 1024" version="1.1" xmlns="http://www.w3.org/2000/svg" p-id="3225" xmlns:xlink="http://www.w3.org/1999/xlink" width="200" height="200"><defs><style type="text/css">@font-face { font-family: "feedback-iconfont"; src: url("//at.alicdn.com/t/font_1031158_u69w8yhxdu.woff2?t=1630033759944") format("woff2"), url("//at.alicdn.com/t/font_1031158_u69w8yhxdu.woff?t=1630033759944") format("woff"), url("//at.alicdn.com/t/font_1031158_u69w8yhxdu.ttf?t=1630033759944") format("truetype"); }
</style></defs><path d="M512 64C264.64 64 64 264.576 64 512c0 247.36 200.64 448 448 448 247.424 0 448-200.64 448-448C960 264.576 759.424 64 512 64zM511.936 896.768C299.52 896.768 127.232 724.48 127.232 512S299.52 127.232 511.936 127.232c212.48 0 384.704 172.224 384.704 384.768S724.416 896.768 511.936 896.768zM777.024 512.064c0 22.656-19.008 41.152-42.752 41.152l-181.12 0 0 181.184c0 23.488-18.368 42.624-41.152 42.624-22.72 0.064-41.152-19.072-41.152-42.56L470.848 553.152l-181.12 0C266.24 553.216 246.976 534.656 246.976 512.064c0.128-22.656 19.264-41.152 42.88-41.088l180.992 0L470.848 289.792c0-23.68 18.496-42.688 41.152-42.752 22.72-0.064 41.152 19.136 41.152 42.688l0 181.248 181.12 0C757.888 470.784 777.024 489.344 777.024 512.064z" p-id="3226"></path></svg>